<svg xmlns="http://www.w3.org/2000/svg" viewBox="0 0 512 512" role="img" aria-label="La plage youpiii">
  <defs>
    <linearGradient id="bg" x1="0" y1="0" x2="1" y2="1">
      <stop offset="0" stop-color="#062536"/>
      <stop offset="1" stop-color="#031019"/>
    </linearGradient>
    <linearGradient id="wave" x1="0" y1="0" x2="1" y2="1">
      <stop offset="0" stop-color="#5df2dc"/>
      <stop offset="1" stop-color="#69c9ff"/>
    </linearGradient>
  </defs>
  <rect width="512" height="512" rx="118" fill="url(#bg)"/>
  <circle cx="372" cy="142" r="54" fill="#ffe3aa"/>
  <path d="M74 286c58-63 112-64 168-7 54 55 105 54 196-23v70c-88 72-158 80-224 21-50-44-91-44-140 4z" fill="url(#wave)"/>
  <path d="M74 346c53-39 101-40 151-4 57 42 117 41 213-16v46c-92 61-166 67-231 25-44-29-83-29-133 8z" fill="#dffcf6" opacity=".92"/>
</svg>
